<?xml version="1.0" standalone="no"?>
<!DOCTYPE svg PUBLIC "-//W3C//DTD SVG 20010904//EN"
 "http://www.w3.org/TR/2001/REC-SVG-20010904/DTD/svg10.dtd">
<svg version="1.0" xmlns="http://www.w3.org/2000/svg"
 width="600.000000pt" height="600.000000pt" viewBox="0 0 600.000000 600.000000"
 preserveAspectRatio="xMidYMid meet">
<metadata>
Created by potrace 1.14, written by Peter Selinger 2001-2017
</metadata>
<g transform="translate(0.000000,600.000000) scale(0.100000,-0.100000)"
fill="#000000" stroke="none">
<path d="M1510 4766 c0 -39 -18 -31 210 -96 41 -12 83 -24 93 -26 16 -5 17
-80 15 -1431 l-3 -1426 -180 -67 -180 -68 0 -34 0 -33 435 0 435 0 1 32 c0 36
9 32 -251 128 -55 21 -103 41 -108 44 -7 7 -11 2210 -4 2218 2 2 32 -30 66
-72 34 -41 68 -80 74 -87 7 -7 35 -40 62 -73 28 -33 55 -65 60 -71 17 -19 254
-296 345 -403 25 -30 50 -59 55 -65 6 -6 46 -54 90 -106 44 -52 82 -97 85
-100 4 -3 44 -50 90 -105 47 -55 99 -116 117 -135 17 -19 42 -48 54 -65 13
-16 26 -32 29 -35 3 -3 71 -81 150 -175 185 -217 386 -453 414 -485 12 -14
100 -117 196 -230 96 -113 180 -211 186 -217 7 -7 22 -25 34 -40 20 -26 28
-28 91 -29 44 -1 69 3 70 10 0 6 1 700 1 1543 1 843 4 1531 7 1530 3 -1 51 16
106 37 114 44 212 80 238 89 12 5 17 17 17 42 l0 35 -437 0 -438 0 0 -34 0
-35 140 -51 c77 -29 160 -61 185 -71 l45 -19 0 -910 c0 -501 -3 -910 -7 -910
-3 0 -44 44 -89 98 -46 53 -93 108 -105 122 -12 14 -79 93 -149 175 -70 83
-143 168 -162 190 -20 22 -54 63 -78 90 -23 28 -113 133 -200 235 -179 210
-181 212 -255 300 -30 36 -61 72 -70 81 -8 9 -31 36 -52 60 -20 24 -46 55 -58
69 -12 14 -29 34 -38 45 -275 325 -301 352 -414 436 -148 110 -225 126 -622
128 l-296 2 0 -35z"/>
</g>
</svg>
